<svg version="1.1" id="Layer_1" xmlns="http://www.w3.org/2000/svg" xmlns:xlink="http://www.w3.org/1999/xlink" x="0px" y="0px"
	 width="100%" viewBox="0 0 723 420" enable-background="new 0 0 723 420" xml:space="preserve">
<path fill="#ffffff" opacity="0.000000" stroke="none"
	d="
M516.000000,421.000000
	C344.000000,421.000000 172.500000,421.000000 1.000000,421.000000
	C1.000000,281.000000 1.000000,141.000000 1.000000,1.000000
	C242.000000,1.000000 483.000000,1.000000 724.000000,1.000000
	C724.000000,141.000000 724.000000,281.000000 724.000000,421.000000
	C654.833313,421.000000 585.666687,421.000000 516.000000,421.000000
M145.041458,49.529110
	C117.676949,63.813515 99.181999,85.690033 92.167061,115.715744
	C81.944275,159.471878 96.409462,195.211426 130.765289,223.262192
	C110.435471,261.013885 90.313644,298.379333 69.919746,336.250000
	C77.820465,340.520172 85.311058,344.568634 93.060677,348.757111
	C113.668701,310.565948 133.883469,273.103607 154.137161,235.569107
	C167.493744,240.338394 180.601089,242.820755 194.027435,242.038635
	C194.027435,233.230438 194.027435,224.847351 194.027435,216.478104
	C141.686142,216.643753 113.227936,172.785675 115.144447,137.295151
	C117.219345,98.871613 146.468414,68.573326 185.271774,65.222961
	C220.420166,62.188171 262.865723,88.408661 266.475494,136.780884
	C273.612091,136.780884 280.731384,136.636673 287.840759,136.840271
	C291.527008,136.945847 292.343689,135.485306 292.052521,132.055603
	C290.717804,116.332130 286.062347,101.690186 277.898743,88.229134
	C250.256683,42.649773 195.644257,26.555079 145.041458,49.529110
M292.005127,167.412827
	C288.187531,167.154831 284.373383,166.815506 280.551727,166.652100
	C256.366760,165.617981 234.561966,178.954544 227.128113,200.834961
	C218.822433,225.281418 222.333511,253.550674 256.718567,263.866913
	C263.733795,265.971649 270.929321,267.527985 277.834351,269.932587
	C284.707581,272.326111 291.930695,274.537537 297.925049,278.468567
	C312.352051,287.929504 310.525421,307.841980 295.058411,315.379395
	C280.706604,322.373291 262.410614,319.115326 250.211212,307.347137
	C247.851089,305.070435 245.619431,302.660583 243.066101,300.043182
	C235.402115,306.565002 228.127792,312.755219 220.779922,319.008026
	C238.566376,342.373627 262.032196,350.317657 289.573059,347.208252
	C309.463379,344.962524 325.330933,335.460266 334.603973,317.194489
	C349.298370,288.249969 337.036652,257.666199 306.564270,246.602280
	C300.162598,244.277939 293.429626,242.881241 286.958710,240.728256
	C279.875946,238.371689 272.624390,236.225800 265.984772,232.910065
	C257.966614,228.905899 255.138626,221.558609 256.301575,212.745850
	C257.444519,204.084839 262.691223,198.923065 270.876770,196.954834
	C284.631531,193.647461 297.351440,195.619125 308.190033,205.464691
	C310.483429,207.547943 312.783234,209.624146 315.268005,211.873779
	C318.745880,208.013718 321.863373,204.558456 324.975372,201.098251
	C328.060089,197.668381 331.139221,194.233521 334.172577,190.854568
	C323.216339,178.157135 308.392883,169.872574 292.005127,167.412827
M454.718964,328.499268
	C454.718964,334.880188 454.718964,341.261078 454.718964,347.830566
	C464.246155,346.375793 472.779755,344.884308 481.367889,343.842072
	C485.570190,343.332092 487.064697,341.904999 487.043335,337.349457
	C486.839233,293.857544 486.921448,250.364258 486.921448,206.871368
	C486.921448,204.927368 486.921417,202.983353 486.921417,200.543442
	C494.494934,200.543442 501.457520,200.543442 508.420135,200.543442
	C515.525146,200.543442 522.630127,200.543442 529.851196,200.543442
	C529.851196,190.529480 529.851196,181.280258 529.851196,171.521606
	C522.587158,171.521606 515.617432,171.521606 508.647766,171.521606
	C501.558868,171.521606 494.469971,171.521606 487.160980,171.521606
	C487.160980,169.376099 487.116150,168.063492 487.167694,166.754684
	C488.104828,142.955444 499.676453,132.053680 523.263306,132.828934
	C526.250427,132.927124 529.225952,133.396072 532.205139,133.709854
	C534.085571,133.907913 535.962769,134.136780 538.564514,134.434586
	C536.099365,126.921707 533.888184,120.139008 531.648010,113.365913
	C528.349976,103.394478 528.256714,102.810448 517.587219,104.345535
	C507.115570,105.852150 496.276062,107.333458 486.590363,111.268494
	C463.138977,120.796165 455.817596,140.986450 454.720886,164.440964
	C454.616180,166.680038 454.503815,168.918747 454.377289,171.522125
	C450.824585,171.522125 447.834320,171.352936 444.879242,171.601639
	C443.617340,171.707855 441.647583,172.409164 441.328247,173.310745
	C438.235748,182.041153 435.425812,190.871643 432.265747,200.494110
	C440.121979,200.494110 447.169800,200.494110 454.718933,200.494110
	C454.718933,243.260376 454.718933,285.379974 454.718964,328.499268
M625.457153,347.784454
	C630.273621,347.471497 635.104004,347.285370 639.896667,346.756592
	C641.097473,346.624084 642.981506,345.567657 643.187073,344.635071
	C645.174377,335.620117 646.870361,326.540894 648.642822,317.514587
	C638.824341,317.949402 629.707092,318.914215 620.628418,318.632629
	C604.224487,318.123901 597.203735,311.094604 597.017639,294.703766
	C596.667725,263.891266 596.836365,233.072815 596.812378,202.256805
	C596.812012,201.806274 597.109497,201.355515 597.435791,200.427490
	C612.104187,200.427490 626.857056,200.427490 641.882263,200.427490
	C641.882263,190.659622 641.882263,181.398254 641.882263,171.445526
	C626.868225,171.445526 611.997742,171.445526 596.596069,171.445526
	C596.596069,154.704529 596.596069,138.644272 596.596069,122.048462
	C586.278687,124.505722 576.573730,126.703209 566.964355,129.260254
	C565.852417,129.556137 564.589050,131.832520 564.555664,133.218628
	C564.339172,142.209106 564.443848,151.207336 564.443665,160.203018
	C564.443481,171.369690 564.442078,171.307373 553.287170,171.583527
	C551.683960,171.623215 549.120728,172.170929 548.667725,173.209869
	C544.843079,181.982239 541.406006,190.923584 537.493042,200.713501
	C547.016907,200.713501 555.568298,200.713501 564.443604,200.713501
	C564.443604,203.346771 564.443604,205.322296 564.443604,207.297806
	C564.443848,237.283432 564.352234,267.269409 564.473083,297.254547
	C564.571106,321.579773 580.486694,341.504120 604.118042,346.389496
	C610.716187,347.753540 617.676025,347.367645 625.457153,347.784454
M406.919006,263.500000
	C406.919006,231.402298 406.919006,199.304581 406.919006,166.608887
	C395.851837,168.331711 385.419067,169.955780 375.162964,171.552353
	C375.162964,230.607941 375.162964,289.100006 375.162964,347.751770
	C384.334106,346.359314 393.023346,344.805420 401.776123,343.811279
	C406.071259,343.323486 407.056976,341.574829 407.021545,337.440674
	C406.813080,313.128632 406.919006,288.813843 406.919006,263.500000
M405.949127,134.482208
	C407.980835,131.930054 410.012543,129.377914 412.109985,126.743202
	C404.781036,118.025818 397.782532,109.701485 390.449860,100.979706
	C383.161530,109.939346 376.377075,118.279533 369.372620,126.890182
	C376.695282,135.485306 383.750916,143.767029 391.131134,152.429718
	C396.214966,146.268372 400.854034,140.646027 405.949127,134.482208
z"/>
<path fill="#40b1a1" opacity="1.000000" stroke="none"
	d="
M145.371002,49.352364
	C195.644257,26.555079 250.256683,42.649773 277.898743,88.229134
	C286.062347,101.690186 290.717804,116.332130 292.052521,132.055603
	C292.343689,135.485306 291.527008,136.945847 287.840759,136.840271
	C280.731384,136.636673 273.612091,136.780884 266.475494,136.780884
	C262.865723,88.408661 220.420166,62.188171 185.271774,65.222961
	C146.468414,68.573326 117.219345,98.871613 115.144447,137.295151
	C113.227936,172.785675 141.686142,216.643753 194.027435,216.478104
	C194.027435,224.847351 194.027435,233.230438 194.027435,242.038635
	C180.601089,242.820755 167.493744,240.338394 154.137161,235.569107
	C133.883469,273.103607 113.668701,310.565948 93.060677,348.757111
	C85.311058,344.568634 77.820465,340.520172 69.919746,336.250000
	C90.313644,298.379333 110.435471,261.013885 130.765289,223.262192
	C96.409462,195.211426 81.944275,159.471878 92.167061,115.715744
	C99.181999,85.690033 117.676949,63.813515 145.371002,49.352364
z"/>
<path fill="#174a5b" opacity="1.000000" stroke="none"
	d="
M292.441162,167.495911
	C308.392883,169.872574 323.216339,178.157135 334.172577,190.854568
	C331.139221,194.233521 328.060089,197.668381 324.975372,201.098251
	C321.863373,204.558456 318.745880,208.013718 315.268005,211.873779
	C312.783234,209.624146 310.483429,207.547943 308.190033,205.464691
	C297.351440,195.619125 284.631531,193.647461 270.876770,196.954834
	C262.691223,198.923065 257.444519,204.084839 256.301575,212.745850
	C255.138626,221.558609 257.966614,228.905899 265.984772,232.910065
	C272.624390,236.225800 279.875946,238.371689 286.958710,240.728256
	C293.429626,242.881241 300.162598,244.277939 306.564270,246.602280
	C337.036652,257.666199 349.298370,288.249969 334.603973,317.194489
	C325.330933,335.460266 309.463379,344.962524 289.573059,347.208252
	C262.032196,350.317657 238.566376,342.373627 220.779922,319.008026
	C228.127792,312.755219 235.402115,306.565002 243.066101,300.043182
	C245.619431,302.660583 247.851089,305.070435 250.211212,307.347137
	C262.410614,319.115326 280.706604,322.373291 295.058411,315.379395
	C310.525421,307.841980 312.352051,287.929504 297.925049,278.468567
	C291.930695,274.537537 284.707581,272.326111 277.834351,269.932587
	C270.929321,267.527985 263.733795,265.971649 256.718567,263.866913
	C222.333511,253.550674 218.822433,225.281418 227.128113,200.834961
	C234.561966,178.954544 256.366760,165.617981 280.551727,166.652100
	C284.373383,166.815506 288.187531,167.154831 292.441162,167.495911
z"/>
<path fill="#174a5b" opacity="1.000000" stroke="none"
	d="
M454.718933,327.999420
	C454.718933,285.379974 454.718933,243.260376 454.718933,200.494110
	C447.169800,200.494110 440.121979,200.494110 432.265747,200.494110
	C435.425812,190.871643 438.235748,182.041153 441.328247,173.310745
	C441.647583,172.409164 443.617340,171.707855 444.879242,171.601639
	C447.834320,171.352936 450.824585,171.522125 454.377289,171.522125
	C454.503815,168.918747 454.616180,166.680038 454.720886,164.440964
	C455.817596,140.986450 463.138977,120.796165 486.590363,111.268494
	C496.276062,107.333458 507.115570,105.852150 517.587219,104.345535
	C528.256714,102.810448 528.349976,103.394478 531.648010,113.365913
	C533.888184,120.139008 536.099365,126.921707 538.564514,134.434586
	C535.962769,134.136780 534.085571,133.907913 532.205139,133.709854
	C529.225952,133.396072 526.250427,132.927124 523.263306,132.828934
	C499.676453,132.053680 488.104828,142.955444 487.167694,166.754684
	C487.116150,168.063492 487.160980,169.376099 487.160980,171.521606
	C494.469971,171.521606 501.558868,171.521606 508.647766,171.521606
	C515.617432,171.521606 522.587158,171.521606 529.851196,171.521606
	C529.851196,181.280258 529.851196,190.529480 529.851196,200.543442
	C522.630127,200.543442 515.525146,200.543442 508.420135,200.543442
	C501.457520,200.543442 494.494934,200.543442 486.921417,200.543442
	C486.921417,202.983353 486.921448,204.927368 486.921448,206.871368
	C486.921448,250.364258 486.839233,293.857544 487.043335,337.349457
	C487.064697,341.904999 485.570190,343.332092 481.367889,343.842072
	C472.779755,344.884308 464.246155,346.375793 454.718964,347.830566
	C454.718964,341.261078 454.718964,334.880188 454.718933,327.999420
z"/>
<path fill="#174a5b" opacity="1.000000" stroke="none"
	d="
M624.963562,347.784485
	C617.676025,347.367645 610.716187,347.753540 604.118042,346.389496
	C580.486694,341.504120 564.571106,321.579773 564.473083,297.254547
	C564.352234,267.269409 564.443848,237.283432 564.443604,207.297806
	C564.443604,205.322296 564.443604,203.346771 564.443604,200.713501
	C555.568298,200.713501 547.016907,200.713501 537.493042,200.713501
	C541.406006,190.923584 544.843079,181.982239 548.667725,173.209869
	C549.120728,172.170929 551.683960,171.623215 553.287170,171.583527
	C564.442078,171.307373 564.443481,171.369690 564.443665,160.203018
	C564.443848,151.207336 564.339172,142.209106 564.555664,133.218628
	C564.589050,131.832520 565.852417,129.556137 566.964355,129.260254
	C576.573730,126.703209 586.278687,124.505722 596.596069,122.048462
	C596.596069,138.644272 596.596069,154.704529 596.596069,171.445526
	C611.997742,171.445526 626.868225,171.445526 641.882263,171.445526
	C641.882263,181.398254 641.882263,190.659622 641.882263,200.427490
	C626.857056,200.427490 612.104187,200.427490 597.435791,200.427490
	C597.109497,201.355515 596.812012,201.806274 596.812378,202.256805
	C596.836365,233.072815 596.667725,263.891266 597.017639,294.703766
	C597.203735,311.094604 604.224487,318.123901 620.628418,318.632629
	C629.707092,318.914215 638.824341,317.949402 648.642822,317.514587
	C646.870361,326.540894 645.174377,335.620117 643.187073,344.635071
	C642.981506,345.567657 641.097473,346.624084 639.896667,346.756592
	C635.104004,347.285370 630.273621,347.471497 624.963562,347.784485
z"/>
<path fill="#174a5b" opacity="1.000000" stroke="none"
	d="
M406.919006,264.000000
	C406.919006,288.813843 406.813080,313.128632 407.021545,337.440674
	C407.056976,341.574829 406.071259,343.323486 401.776123,343.811279
	C393.023346,344.805420 384.334106,346.359314 375.162964,347.751770
	C375.162964,289.100006 375.162964,230.607941 375.162964,171.552353
	C385.419067,169.955780 395.851837,168.331711 406.919006,166.608887
	C406.919006,199.304581 406.919006,231.402298 406.919006,264.000000
z"/>
<path fill="#174a5b" opacity="1.000000" stroke="none"
	d="
M405.721130,134.752960
	C400.854034,140.646027 396.214966,146.268372 391.131134,152.429718
	C383.750916,143.767029 376.695282,135.485306 369.372620,126.890182
	C376.377075,118.279533 383.161530,109.939346 390.449860,100.979706
	C397.782532,109.701485 404.781036,118.025818 412.109985,126.743202
	C410.012543,129.377914 407.980835,131.930054 405.721130,134.752960
z"/>
</svg>
